<?xml version="1.0" encoding="iso-8859-1"?>
<!-- Generator: Adobe Illustrator 19.0.0, SVG Export Plug-In . SVG Version: 6.00 Build 0)  -->
<svg version="1.1" id="Layer_1" xmlns="http://www.w3.org/2000/svg" xmlns:xlink="http://www.w3.org/1999/xlink" x="0px" y="0px"
	 viewBox="0 0 512 512" style="enable-background:new 0 0 512 512;" xml:space="preserve">
<g>
	<g>
		<g>
			<path d="M213.333,34.133h85.333c4.71,0,8.533-3.823,8.533-8.533c0-4.71-3.823-8.533-8.533-8.533h-85.333
				c-4.71,0-8.533,3.823-8.533,8.533C204.8,30.31,208.623,34.133,213.333,34.133z"/>
			<path d="M213.333,85.333h85.333c4.71,0,8.533-3.823,8.533-8.533s-3.823-8.533-8.533-8.533h-85.333
				c-4.71,0-8.533,3.823-8.533,8.533S208.623,85.333,213.333,85.333z"/>
			<path d="M85.333,110.933v290.133c0,4.71,3.823,8.533,8.533,8.533h324.267c4.71,0,8.533-3.823,8.533-8.533V110.933
				c0-4.71-3.823-8.533-8.533-8.533H93.867C89.156,102.4,85.333,106.223,85.333,110.933z M102.4,119.467h307.2v273.067H102.4
				V119.467z"/>
			<path d="M136.533,76.8c0,4.71,3.823,8.533,8.533,8.533H179.2c4.71,0,8.533-3.823,8.533-8.533V8.533
				c0-4.71-3.823-8.533-8.533-8.533h-34.133c-4.71,0-8.533,3.823-8.533,8.533v8.533h-128C3.823,17.067,0,20.89,0,25.6
				c0,4.71,3.823,8.533,8.533,8.533h128V76.8z M153.6,17.067h17.067v51.2H153.6V17.067z"/>
			<path d="M503.467,17.067h-128V8.533c0-4.71-3.823-8.533-8.533-8.533H332.8c-4.71,0-8.533,3.823-8.533,8.533V76.8
				c0,4.71,3.823,8.533,8.533,8.533h34.133c4.71,0,8.533-3.823,8.533-8.533V34.133h128c4.71,0,8.533-3.823,8.533-8.533
				C512,20.89,508.177,17.067,503.467,17.067z M358.4,68.267h-17.067v-51.2H358.4V68.267z"/>
			<path d="M418.133,68.267h-17.067c-4.71,0-8.533,3.823-8.533,8.533s3.823,8.533,8.533,8.533h17.067
				c14.114,0,25.6,11.486,25.6,25.6v358.4c0,14.114-11.486,25.6-25.6,25.6H93.867c-14.114,0-25.6-11.486-25.6-25.6v-358.4
				c0-14.114,11.486-25.6,25.6-25.6h17.067c4.71,0,8.533-3.823,8.533-8.533s-3.823-8.533-8.533-8.533H93.867
				c-23.526,0-42.667,19.14-42.667,42.667v358.4C51.2,492.86,70.34,512,93.867,512h324.267c23.526,0,42.667-19.14,42.667-42.667
				v-358.4C460.8,87.407,441.66,68.267,418.133,68.267z"/>
		</g>
	</g>
</g>
<g>
</g>
<g>
</g>
<g>
</g>
<g>
</g>
<g>
</g>
<g>
</g>
<g>
</g>
<g>
</g>
<g>
</g>
<g>
</g>
<g>
</g>
<g>
</g>
<g>
</g>
<g>
</g>
<g>
</g>
</svg>
